<?xml version="1.0" encoding="utf-8"?>
<!-- Generator: Adobe Illustrator 16.0.0, SVG Export Plug-In . SVG Version: 6.00 Build 0)  -->
<!DOCTYPE svg PUBLIC "-//W3C//DTD SVG 1.1//EN" "http://www.w3.org/Graphics/SVG/1.1/DTD/svg11.dtd">
<svg version="1.1" id="Layer_1" xmlns="http://www.w3.org/2000/svg" xmlns:xlink="http://www.w3.org/1999/xlink" x="0px" y="0px"
	 width="400px" height="400px" viewBox="0 0 400 400" enable-background="new 0 0 400 400" xml:space="preserve">
<g>
	<path fill="#FFFFFF" d="M383.131,142.741c0-25.113,0-50.227,0-75.34c0-2.534-0.05-5.069-0.003-7.603
		c0.15-8.113-9.207-16.993-18.692-12.333c-3.92,1.926-7.93,3.678-11.772,5.746c-14.074,7.576-28.029,15.349-43.675,19.442
		c-14.705,3.847-28.917,4.024-42.934-3.094c-8.587-4.36-17.675-7.754-26.609-11.407c-25.646-10.483-52.215-14.708-79.727-10.474
		c-31.139,4.793-59.403,17.475-86.549,32.896c-5.526,3.139-8.249,8.085-8.025,14.622c0.178,5.178,0.036,10.367,0.036,15.551
		c0,46.885-0.052,93.771,0.11,140.657c0.012,3.27,0.884,6.989,2.603,9.712c4.268,6.762,11.433,7.696,19.775,3.355
		c25.781-13.417,52.187-25.098,81.281-29.349c16.985-2.481,33.833-1.883,49.984,4.112c11.163,4.145,21.907,9.447,32.734,14.457
		c17.711,8.193,35.947,12.34,55.585,9.062c24.527-4.093,46.742-14.046,68.273-25.918c5.506-3.036,7.71-7.619,7.672-13.917
		C383.037,196.193,383.129,169.467,383.131,142.741z M23.705,206.988c0,16.013,0,32.026,0,48.039
		c0,28.684-0.003,81.368,0.005,110.054c0.002,6.659,2.494,9.1,9.237,9.114c2.649,0.006,5.299,0.001,7.949,0.001
		c8.433-0.001,10.435-1.982,10.435-10.345c0.001-88.934,0.003-201.867-0.005-290.801c0-1.84,0.009-3.315,1.93-4.66
		c13.587-9.514,15.995-27.073,5.406-39.853c-7.295-8.806-16.929-11.887-27.892-9.137c-10.816,2.713-17.853,9.94-20.147,20.916
		c-2.378,11.375,1.046,20.963,10.746,27.794c1.867,1.314,2.382,2.639,2.379,4.787C23.69,117.594,23.704,162.291,23.705,206.988z"/>
	<linearGradient id="SVGID_1_" gradientUnits="userSpaceOnUse" x1="224.165" y1="46.0527" x2="224.165" y2="267.1138">
		<stop  offset="0" style="stop-color:#ED1C24"/>
		<stop  offset="1" style="stop-color:#BE1E2D"/>
	</linearGradient>
	
		<path fill-rule="evenodd" clip-rule="evenodd" fill="url(#SVGID_1_)" stroke="#000000" stroke-width="8" stroke-miterlimit="10" d="
		M383.13,142.741c-0.001,26.726-0.093,53.453,0.067,80.178c0.038,6.299-2.166,10.881-7.672,13.917
		c-21.531,11.872-43.746,21.825-68.273,25.918c-19.638,3.278-37.874-0.868-55.585-9.062c-10.827-5.01-21.571-10.312-32.734-14.457
		c-16.151-5.995-32.999-6.594-49.984-4.112c-29.094,4.251-55.5,15.932-81.281,29.349c-8.342,4.341-15.507,3.406-19.775-3.355
		c-1.719-2.723-2.591-6.442-2.603-9.712c-0.162-46.885-0.11-93.771-0.11-140.657c0-5.184,0.142-10.373-0.036-15.551
		c-0.224-6.537,2.499-11.483,8.025-14.622c27.146-15.421,55.41-28.103,86.549-32.896c27.512-4.235,54.08-0.01,79.727,10.474
		c8.935,3.653,18.022,7.047,26.609,11.407c14.017,7.118,28.229,6.941,42.934,3.094c15.646-4.093,29.601-11.866,43.675-19.442
		c3.843-2.068,7.853-3.82,11.772-5.746c9.485-4.66,18.843,4.219,18.692,12.333c-0.047,2.534,0.003,5.069,0.003,7.603
		C383.131,92.514,383.131,117.627,383.13,142.741z"/>
	<path fill-rule="evenodd" clip-rule="evenodd" d="M23.705,206.988c0-44.697-0.015-89.394,0.043-134.092
		c0.003-2.147-0.512-3.472-2.379-4.787c-9.7-6.832-13.124-16.42-10.746-27.794c2.294-10.975,9.331-18.202,20.147-20.916
		c10.963-2.75,20.597,0.331,27.892,9.137c10.588,12.78,8.181,30.339-5.406,39.853c-1.921,1.345-1.93,2.82-1.93,4.66
		c0.008,88.934,0.006,201.867,0.005,290.801c0,8.362-2.002,10.344-10.435,10.345c-2.649,0-5.299,0.005-7.949-0.001
		c-6.743-0.015-9.235-2.455-9.237-9.114c-0.009-28.686-0.005-81.37-0.005-110.054C23.705,239.014,23.705,223,23.705,206.988z"/>
</g>
</svg>
