<?xml version="1.0" encoding="utf-8"?>
<!-- Generator: Adobe Illustrator 16.0.0, SVG Export Plug-In . SVG Version: 6.00 Build 0)  -->
<!DOCTYPE svg PUBLIC "-//W3C//DTD SVG 1.1//EN" "http://www.w3.org/Graphics/SVG/1.1/DTD/svg11.dtd">
<svg version="1.1"
	 id="svg5434" xmlns:dc="http://purl.org/dc/elements/1.1/" xmlns:cc="http://creativecommons.org/ns#" xmlns:rdf="http://www.w3.org/1999/02/22-rdf-syntax-ns#" xmlns:svg="http://www.w3.org/2000/svg" xmlns:sodipodi="http://sodipodi.sourceforge.net/DTD/sodipodi-0.dtd" xmlns:inkscape="http://www.inkscape.org/namespaces/inkscape" inkscape:export-ydpi="90" inkscape:export-xdpi="90" inkscape:export-filename="/home/roger/mis-dibujos/open/sea_mine_german.png" inkscape:output_extension="org.inkscape.output.svg.inkscape" sodipodi:docname="sea_mine_german.svg" inkscape:version="0.46" sodipodi:version="0.32"
	 xmlns="http://www.w3.org/2000/svg" xmlns:xlink="http://www.w3.org/1999/xlink" x="0px" y="0px" width="244px" height="244px"
	 viewBox="-21.592 17.019 244 244" enable-background="new -21.592 17.019 244 244" xml:space="preserve">
<filter  id="filter5338" inkscape:collect="always">
	<feGaussianBlur  stdDeviation="0.19678674" id="feGaussianBlur5340" inkscape:collect="always"></feGaussianBlur>
</filter>
<defs>
	
	
		<inkscape:perspective  inkscape:vp_z="744.09448 : 526.18109 : 1" inkscape:vp_y="0 : 1000 : 0" inkscape:vp_x="0 : 526.18109 : 1" sodipodi:type="inkscape:persp3d" id="perspective5442" inkscape:persp3d-origin="372.04724 : 350.78739 : 1">
		</inkscape:perspective>
</defs>
<sodipodi:namedview  showgrid="false" inkscape:cy="520" inkscape:cx="350" inkscape:zoom="0.35" borderopacity="1.0" bordercolor="#666666" pagecolor="#ffffff" id="base" inkscape:window-y="0" inkscape:window-x="0" inkscape:window-height="662" inkscape:window-width="640" inkscape:current-layer="layer1" inkscape:document-units="px" inkscape:pageshadow="2" inkscape:pageopacity="0.0">
	</sodipodi:namedview>
<g id="layer1" transform="translate(-250.8478,-393.34328)" inkscape:label="Capa 1" inkscape:groupmode="layer">
	<path id="path5432" sodipodi:nodetypes="csccccsccsssc" fill="#616665" d="M413.826,432.179c4.098,2.722,5.291,8.169,2.631,12.163
		c-1.431,2.148-3.705,3.417-6.123,3.733l-3.035,5.187l-10.416-6.916l3.614-4.803c-0.642-2.348-0.351-4.934,1.079-7.081
		C404.236,430.468,409.728,429.459,413.826,432.179z M411.737,435.317c-2.259-1.5-5.312-0.887-6.813,1.369
		c-1.502,2.255-0.887,5.304,1.371,6.803c2.26,1.5,5.312,0.887,6.813-1.369C414.61,439.865,413.996,436.817,411.737,435.317z"/>
	<path id="path5424" sodipodi:nodetypes="csccccsccsssc" fill="#616665" d="M280.489,436.238c-4.098,2.721-5.291,8.168-2.63,12.163
		c1.43,2.148,3.705,3.416,6.122,3.733l3.036,5.187l10.416-6.917l-3.615-4.802c0.642-2.349,0.351-4.934-1.079-7.081
		C290.079,434.525,284.588,433.517,280.489,436.238z M282.578,439.375c2.259-1.499,5.311-0.886,6.813,1.369
		c1.502,2.256,0.888,5.304-1.371,6.804s-5.311,0.886-6.813-1.369C279.705,443.923,280.319,440.875,282.578,439.375z"/>
	
		<radialGradient id="path4393_1_" cx="260.9152" cy="1006.8777" r="33.375" gradientTransform="matrix(-1.6494 2.874 2.5644 1.4675 -1762.7362 -1738.7922)" gradientUnits="userSpaceOnUse">
		<stop  offset="0" style="stop-color:#D3D7CF"/>
		<stop  offset="1" style="stop-color:#2E3436"/>
	</radialGradient>
	
		<path id="path4393" sodipodi:ry="33.125" sodipodi:rx="33.125" sodipodi:cy="42.305397" sodipodi:cx="159.625" sodipodi:type="arc" fill="url(#path4393_1_)" stroke="#445057" stroke-width="0.1693" d="
		M448.414,532.207c0,53.994-43.834,97.766-97.906,97.766c-54.071,0-97.905-43.771-97.905-97.766
		c0-53.995,43.833-97.767,97.905-97.767C404.58,434.44,448.414,478.212,448.414,532.207z"/>
	<g id="g5126" transform="matrix(2.9556332,0,0,2.9514166,-1173.962,-3671.327)">
		
			<linearGradient id="rect5091_1_" gradientUnits="userSpaceOnUse" x1="606.0752" y1="1057.8184" x2="607.7002" y2="1057.8184" gradientTransform="matrix(2.9556 0 0 -2.9514 -1275.6146 4504.8809)">
			<stop  offset="0" style="stop-color:#000000"/>
			<stop  offset="1" style="stop-color:#D3D7CF"/>
		</linearGradient>
		<path id="rect5091" sodipodi:nodetypes="ccccc" fill="url(#rect5091_1_)" d="M515.508,1377.193v11.25h1.75v-11.25H515.508z"/>
		
			<linearGradient id="path5108_1_" gradientUnits="userSpaceOnUse" x1="609.0978" y1="1055.4185" x2="613.2228" y2="1055.481" gradientTransform="matrix(2.9556 0 0 -2.9514 -1285.2401 4504.8184)">
			<stop  offset="0" style="stop-color:#000000"/>
			<stop  offset="1" style="stop-color:#D3D7CF"/>
		</linearGradient>
		<path id="path5108" inkscape:transform-center-y="0.4375" sodipodi:nodetypes="ccccccc" fill="url(#path5108_1_)" d="
			M512.758,1388.318v3h2.75h1.75h2.75v-3H512.758z"/>
	</g>
	<g id="path5266" filter="url(#filter5338)">
		<path fill="#60625E" d="M383.114,516.684c0.198,0.021,0.392-0.009,0.554-0.093c0.164-0.084,0.285-0.202,0.37-0.369l16.44-11.897
			c3.369,4.116,7.881,6.105,10.898,4.52c0.143-0.075,0.238-0.188,0.37-0.276l0.093,0.184l6.373-4.888
			c0.063-0.03,0.122-0.06,0.185-0.093c0.114-0.06,0.17-0.208,0.276-0.276c0.291-0.187,0.594-0.4,0.832-0.646
			c0.299-0.308,0.521-0.625,0.738-1.015c0.22-0.393,0.418-0.828,0.555-1.291c0.136-0.463,0.225-0.955,0.277-1.476
			c0.039-0.393,0.1-0.78,0.092-1.199c-0.002-0.272-0.069-0.549-0.092-0.83c-0.041-0.459-0.092-0.905-0.186-1.384
			c-0.106-0.545-0.193-1.098-0.369-1.66c-0.115-0.376-0.314-0.727-0.462-1.106c-0.116-0.301-0.233-0.621-0.369-0.923
			c-0.286-0.631-0.55-1.308-0.924-1.937c-0.259-0.437-0.546-0.793-0.831-1.199c-0.18-0.257-0.365-0.494-0.555-0.737
			c-0.016-0.021,0.016-0.072,0-0.093c-0.475-0.608-1.052-1.14-1.57-1.66c-0.545-0.551-1.087-1.035-1.662-1.476
			c-1.687-1.296-3.447-2.12-5.08-2.306c-1.088-0.124-2.064-0.007-2.955,0.461c-0.273,0.144-0.532,0.349-0.739,0.554
			c-0.032,0.031-0.062,0.06-0.093,0.092c-0.229,0.198-0.457,0.404-0.646,0.646l-4.525,3.505c-0.361,0.09-0.687,0.196-1.016,0.369
			c-3.326,1.748-3.648,7.183-0.924,12.544l-16.995,12.267l0.093,0.092c-0.434,0.45-0.449,1.41,0.092,2.307
			C381.824,516.161,382.521,516.621,383.114,516.684z"/>
	</g>
	<g id="g5251" transform="matrix(2.9556332,0,0,2.9514166,-1160.7414,-3666.9205)">
		
			<linearGradient id="path5144_1_" gradientUnits="userSpaceOnUse" x1="475.4261" y1="1497.2435" x2="479.0861" y2="1486.9048" gradientTransform="matrix(1.7388 -0.915 -0.97 -1.6355 1153.6105 4291.438)">
			<stop  offset="0" style="stop-color:#000000"/>
			<stop  offset="1" style="stop-color:#000000;stop-opacity:0"/>
		</linearGradient>
		
			<path id="path5144" sodipodi:ry="6.319767" sodipodi:rx="3.7123106" sodipodi:cy="2.4488652" sodipodi:cx="188.53235" sodipodi:type="arc" fill="url(#path5144_1_)" d="
			M532.908,1408.932c1.147,1.934,1.099,4.017-0.107,4.651c-1.206,0.635-3.114-0.418-4.261-2.353c-1.147-1.934-1.1-4.016,0.106-4.651
			C529.853,1405.945,531.761,1406.998,532.908,1408.932z"/>
		
			<linearGradient id="path5138_1_" gradientUnits="userSpaceOnUse" x1="617.5311" y1="1085.632" x2="615.8902" y2="1085.3442" gradientTransform="matrix(1.9051 2.6685 2.571 -1.9718 -3437.4089 1901.4386)">
			<stop  offset="0" style="stop-color:#000000"/>
			<stop  offset="1" style="stop-color:#D3D7CF"/>
		</linearGradient>
		<path id="path5138" fill="url(#path5138_1_)" d="M530.878,1404.875l-2.218,1.719l-0.094,0.063
			c-0.103,0.064-0.198,0.133-0.281,0.219c-0.82,0.842-0.761,2.64,0.25,4.344c1.147,1.933,3.076,3.009,4.281,2.375
			c0.185-0.098,0.307-0.246,0.438-0.406l2.313-1.781L530.878,1404.875z"/>
		
			<path id="path5186" sodipodi:ry="6.319767" sodipodi:rx="3.7123106" sodipodi:cy="2.4488652" sodipodi:cx="188.53235" sodipodi:type="arc" fill="#A4A7A1" d="
			M535.294,1407.208c1.147,1.934,1.099,4.017-0.107,4.651c-1.206,0.635-3.114-0.418-4.261-2.353
			c-1.147-1.934-1.099-4.016,0.107-4.651C532.24,1404.221,534.147,1405.274,535.294,1407.208z"/>
		
			<linearGradient id="path5136_1_" gradientUnits="userSpaceOnUse" x1="626.3676" y1="1086.9343" x2="627.9926" y2="1086.9343" gradientTransform="matrix(1.4807 1.961 1.9982 -1.449 -2562.8945 1751.9458)">
			<stop  offset="0" style="stop-color:#000000"/>
			<stop  offset="1" style="stop-color:#D3D7CF"/>
		</linearGradient>
		<path id="path5136" fill="url(#path5136_1_)" d="M540.378,1402.252l-7.625,5.531l0.031,0.031c-0.182,0.129-0.196,0.442,0,0.75
			c0.209,0.328,0.561,0.514,0.781,0.406c0.021-0.01,0.046-0.017,0.063-0.031l7.625-5.5L540.378,1402.252z"/>
		
			<path id="path5203" sodipodi:ry="6.319767" sodipodi:rx="3.7123106" sodipodi:cy="2.4488652" sodipodi:cx="188.53235" sodipodi:type="arc" fill="#A5A8A2" d="
			M541.165,1402.652c0.209,0.347,0.201,0.72-0.019,0.834c-0.221,0.114-0.569-0.075-0.779-0.422c-0.21-0.347-0.201-0.721,0.019-0.834
			C540.607,1402.116,540.956,1402.305,541.165,1402.652z"/>
	</g>
	<g id="g5344" transform="matrix(-2.9556332,0,0,2.9514166,1850.7813,-3669.0077)">
		
			<linearGradient id="path5346_1_" gradientUnits="userSpaceOnUse" x1="602.2362" y1="1530.8225" x2="605.8961" y2="1520.4843" gradientTransform="matrix(-1.7388 0.915 -0.97 -1.6355 3059.9768 3360.2571)">
			<stop  offset="0" style="stop-color:#000000"/>
			<stop  offset="1" style="stop-color:#000000;stop-opacity:0"/>
		</linearGradient>
		
			<path id="path5346" sodipodi:ry="6.319767" sodipodi:rx="3.7123106" sodipodi:cy="2.4488652" sodipodi:cx="188.53235" sodipodi:type="arc" fill="url(#path5346_1_)" d="
			M532.908,1408.932c1.147,1.934,1.099,4.016-0.107,4.651c-1.206,0.635-3.114-0.419-4.261-2.353s-1.099-4.016,0.107-4.651
			C529.853,1405.944,531.761,1406.998,532.908,1408.932z"/>
		
			<linearGradient id="path5348_1_" gradientUnits="userSpaceOnUse" x1="426.2724" y1="1052.6489" x2="424.6315" y2="1052.3612" gradientTransform="matrix(-1.9051 -2.6685 2.571 -1.9718 -1364.0156 4621.8057)">
			<stop  offset="0" style="stop-color:#000000"/>
			<stop  offset="1" style="stop-color:#D3D7CF"/>
		</linearGradient>
		<path id="path5348" fill="url(#path5348_1_)" d="M530.878,1404.875l-2.219,1.719l-0.094,0.063
			c-0.103,0.064-0.197,0.133-0.281,0.219c-0.82,0.842-0.761,2.64,0.25,4.344c1.146,1.933,3.076,3.009,4.281,2.375
			c0.185-0.097,0.307-0.246,0.437-0.406l2.312-1.781L530.878,1404.875z"/>
		
			<linearGradient id="path5350_1_" gradientUnits="userSpaceOnUse" x1="600.5187" y1="1530.0323" x2="595.7235" y2="1525.5209" gradientTransform="matrix(-1.7388 0.915 -0.97 -1.6355 3062.3633 3358.5332)">
			<stop  offset="0" style="stop-color:#F2F2F2"/>
			<stop  offset="1" style="stop-color:#F2F2F2;stop-opacity:0"/>
		</linearGradient>
		
			<path id="path5350" sodipodi:ry="6.319767" sodipodi:rx="3.7123106" sodipodi:cy="2.4488652" sodipodi:cx="188.53235" sodipodi:type="arc" stroke="url(#path5350_1_)" stroke-width="0.1693" d="
			M535.294,1407.208c1.147,1.934,1.099,4.017-0.107,4.651s-3.114-0.419-4.261-2.353c-1.147-1.934-1.099-4.017,0.107-4.651
			C532.239,1404.221,534.147,1405.274,535.294,1407.208z"/>
		
			<linearGradient id="path5352_1_" gradientUnits="userSpaceOnUse" x1="424.5714" y1="1044.2939" x2="426.1964" y2="1044.2939" gradientTransform="matrix(-1.4807 -1.961 1.9982 -1.449 -921.5616 3751.0669)">
			<stop  offset="0" style="stop-color:#000000"/>
			<stop  offset="1" style="stop-color:#D3D7CF"/>
		</linearGradient>
		<path id="path5352" fill="url(#path5352_1_)" d="M540.378,1402.252l-7.625,5.531l0.031,0.031c-0.182,0.129-0.196,0.443,0,0.75
			c0.209,0.328,0.561,0.514,0.781,0.406c0.021-0.01,0.046-0.017,0.062-0.031l7.625-5.5L540.378,1402.252z"/>
		
			<path id="path5354" sodipodi:ry="6.319767" sodipodi:rx="3.7123106" sodipodi:cy="2.4488652" sodipodi:cx="188.53235" sodipodi:type="arc" d="
			M541.165,1402.651c0.209,0.347,0.201,0.721-0.019,0.834c-0.22,0.114-0.569-0.075-0.779-0.422c-0.21-0.347-0.201-0.72,0.019-0.834
			C540.607,1402.115,540.956,1402.305,541.165,1402.651z"/>
	</g>
	<g id="g5382" transform="matrix(2.9556332,0,0,-2.9514166,-1161.2638,4743.8383)">
		
			<linearGradient id="path5384_1_" gradientUnits="userSpaceOnUse" x1="525.1912" y1="1263.609" x2="528.851" y2="1273.9473" gradientTransform="matrix(1.7388 -0.915 0.97 1.6355 -1611.0818 -178.3138)">
			<stop  offset="0" style="stop-color:#000000"/>
			<stop  offset="1" style="stop-color:#000000;stop-opacity:0"/>
		</linearGradient>
		
			<path id="path5384" sodipodi:ry="6.319767" sodipodi:rx="3.7123106" sodipodi:cy="2.4488652" sodipodi:cx="188.53235" sodipodi:type="arc" fill="url(#path5384_1_)" d="
			M532.908,1408.932c1.147,1.934,1.099,4.017-0.107,4.651c-1.206,0.635-3.114-0.419-4.261-2.353s-1.099-4.017,0.107-4.651
			C529.853,1405.945,531.761,1406.998,532.908,1408.932z"/>
		
			<linearGradient id="path5386_1_" gradientUnits="userSpaceOnUse" x1="571.1307" y1="1729.8953" x2="575.901" y2="1729.8538" gradientTransform="matrix(1.9051 2.6685 -2.571 1.9718 3888.9185 -3527.2981)">
			<stop  offset="0" style="stop-color:#000000"/>
			<stop  offset="1" style="stop-color:#D3D7CF"/>
		</linearGradient>
		<path id="path5386" fill="url(#path5386_1_)" d="M530.878,1404.875l-2.219,1.719l-0.094,0.062
			c-0.102,0.065-0.197,0.133-0.281,0.219c-0.821,0.842-0.761,2.64,0.25,4.344c1.147,1.933,3.076,3.009,4.281,2.375
			c0.185-0.097,0.307-0.247,0.437-0.406l2.312-1.781L530.878,1404.875z"/>
		
			<path id="path5388" sodipodi:ry="6.319767" sodipodi:rx="3.7123106" sodipodi:cy="2.4488652" sodipodi:cx="188.53235" sodipodi:type="arc" fill="#5E6463" d="
			M535.294,1407.209c1.147,1.934,1.099,4.017-0.107,4.651c-1.206,0.635-3.114-0.419-4.261-2.353c-1.147-1.934-1.1-4.016,0.106-4.651
			C532.239,1404.221,534.147,1405.274,535.294,1407.209z"/>
		
			<linearGradient id="path5390_1_" gradientUnits="userSpaceOnUse" x1="563.6912" y1="1716.2273" x2="565.8467" y2="1716.229" gradientTransform="matrix(1.4807 1.961 -1.9982 1.449 3131.2278 -2186.9097)">
			<stop  offset="0" style="stop-color:#000000"/>
			<stop  offset="1" style="stop-color:#D3D7CF"/>
		</linearGradient>
		<path id="path5390" fill="url(#path5390_1_)" d="M540.378,1402.252l-7.625,5.531l0.031,0.031c-0.181,0.129-0.197,0.443,0,0.75
			c0.21,0.328,0.561,0.514,0.781,0.406c0.02-0.01,0.046-0.017,0.062-0.031l7.625-5.5L540.378,1402.252z"/>
		
			<path id="path5392" sodipodi:ry="6.319767" sodipodi:rx="3.7123106" sodipodi:cy="2.4488652" sodipodi:cx="188.53235" sodipodi:type="arc" fill="#636867" d="
			M541.165,1402.652c0.209,0.347,0.201,0.721-0.02,0.834c-0.22,0.114-0.569-0.075-0.778-0.422c-0.209-0.347-0.201-0.72,0.019-0.834
			C540.607,1402.116,540.956,1402.305,541.165,1402.652z"/>
	</g>
	<g id="path5400" sodipodi:nodetypes="cscccccsc" filter="url(#filter5338)">
		<path fill="#60625E" d="M410.197,495.829c0.197,0.021,0.392-0.009,0.555-0.093c0.162-0.084,0.285-0.202,0.369-0.369l4.248-3.043
			l-2.309-3.598l-4.803,3.413l0.092,0.092c-0.432,0.45-0.449,1.41,0.093,2.307C408.906,495.306,409.603,495.766,410.197,495.829z"/>
	</g>
	<g id="path5402" sodipodi:nodetypes="cscccccsc" filter="url(#filter5338)">
		<path fill="#555753" d="M409.92,598.127c0.198,0.021,0.945,1.744,0.555-0.092c-0.038-0.179,0.285-0.202,0.369-0.369l4.525-6.732
			l-2.309-3.598l-5.08,7.102l0.092,0.093c-0.432,0.45-0.449,1.41,0.094,2.306C408.63,597.604,409.326,598.065,409.92,598.127z"/>
	</g>
	<g id="g5404" transform="matrix(-2.9556332,0,0,-2.9514166,1859.6482,4749.8256)">
		
			<linearGradient id="path5406_1_" gradientUnits="userSpaceOnUse" x1="555.6479" y1="1232.7655" x2="559.3079" y2="1243.1042" gradientTransform="matrix(-1.7388 0.915 0.97 1.6355 298.1541 -1116.8751)">
			<stop  offset="0" style="stop-color:#000000"/>
			<stop  offset="1" style="stop-color:#000000;stop-opacity:0"/>
		</linearGradient>
		
			<path id="path5406" sodipodi:ry="6.319767" sodipodi:rx="3.7123106" sodipodi:cy="2.4488652" sodipodi:cx="188.53235" sodipodi:type="arc" fill="url(#path5406_1_)" d="
			M532.908,1408.932c1.147,1.934,1.099,4.017-0.107,4.651c-1.206,0.635-3.114-0.418-4.261-2.353
			c-1.147-1.934-1.099-4.016,0.107-4.651C529.853,1405.945,531.761,1406.998,532.908,1408.932z"/>
		
			<linearGradient id="path5408_1_" gradientUnits="userSpaceOnUse" x1="475.5367" y1="1765.6304" x2="480.4963" y2="1764.0039" gradientTransform="matrix(-1.9051 -2.6685 -2.571 1.9718 5975.3975 -803.8485)">
			<stop  offset="0" style="stop-color:#000000"/>
			<stop  offset="1" style="stop-color:#D3D7CF"/>
		</linearGradient>
		<path id="path5408" fill="url(#path5408_1_)" d="M530.878,1404.875l-2.219,1.719l-0.094,0.062
			c-0.103,0.064-0.198,0.133-0.281,0.219c-0.82,0.843-0.761,2.64,0.25,4.344c1.147,1.933,3.076,3.009,4.281,2.375
			c0.185-0.097,0.307-0.246,0.437-0.406l2.312-1.781L530.878,1404.875z"/>
		
			<linearGradient id="path5410_1_" gradientUnits="userSpaceOnUse" x1="553.9304" y1="1233.5563" x2="549.1352" y2="1238.0677" gradientTransform="matrix(-1.7388 0.915 0.97 1.6355 300.5407 -1118.599)">
			<stop  offset="0" style="stop-color:#F2F2F2"/>
			<stop  offset="1" style="stop-color:#F2F2F2;stop-opacity:0"/>
		</linearGradient>
		
			<path id="path5410" sodipodi:ry="6.319767" sodipodi:rx="3.7123106" sodipodi:cy="2.4488652" sodipodi:cx="188.53235" sodipodi:type="arc" stroke="url(#path5410_1_)" stroke-width="0.1693" d="
			M535.294,1407.209c1.147,1.934,1.099,4.016-0.107,4.651c-1.206,0.635-3.114-0.419-4.261-2.353
			c-1.147-1.934-1.099-4.016,0.107-4.651C532.239,1404.221,534.147,1405.274,535.294,1407.209z"/>
		
			<linearGradient id="path5412_1_" gradientUnits="userSpaceOnUse" x1="490.4245" y1="1761.6036" x2="492.0495" y2="1761.6036" gradientTransform="matrix(-1.4807 -1.961 -1.9982 1.449 4782.731 -185.5229)">
			<stop  offset="0" style="stop-color:#000000"/>
			<stop  offset="1" style="stop-color:#D3D7CF"/>
		</linearGradient>
		<path id="path5412" fill="url(#path5412_1_)" d="M540.378,1402.252l-7.625,5.531l0.031,0.031c-0.182,0.129-0.196,0.443,0,0.75
			c0.21,0.328,0.561,0.514,0.781,0.406c0.021-0.01,0.046-0.017,0.062-0.031l7.625-5.5L540.378,1402.252z"/>
		
			<path id="path5414" sodipodi:ry="6.319767" sodipodi:rx="3.7123106" sodipodi:cy="2.4488652" sodipodi:cx="188.53235" sodipodi:type="arc" d="
			M541.165,1402.652c0.21,0.347,0.201,0.721-0.02,0.834c-0.22,0.114-0.569-0.075-0.779-0.422c-0.209-0.347-0.201-0.72,0.02-0.834
			C540.607,1402.116,540.956,1402.305,541.165,1402.652z"/>
	</g>
</g>
</svg>
